<svg width="24" height="24" viewBox="0 0 24 24" fill="none" xmlns="http://www.w3.org/2000/svg">
<path d="M2.75 2C2.75 1.58579 2.41421 1.25 2 1.25C1.58579 1.25 1.25 1.58579 1.25 2H2H2.75ZM22 22.75C22.4142 22.75 22.75 22.4142 22.75 22C22.75 21.5858 22.4142 21.25 22 21.25V22V22.75ZM15.5 8.25C15.0858 8.25 14.75 8.58579 14.75 9C14.75 9.41421 15.0858 9.75 15.5 9.75V9V8.25ZM18.2764 9.55279L17.6056 9.8882V9.8882L18.2764 9.55279ZM18.3292 11.3354C18.5144 11.7059 18.9649 11.8561 19.3354 11.6708C19.7059 11.4856 19.8561 11.0351 19.6708 10.6646L19 11L18.3292 11.3354ZM18.1272 9.91119L18.5384 9.28396L17.284 8.46158L16.8728 9.08881L17.5 9.5L18.1272 9.91119ZM14.7644 13.6729L14.1372 13.2617V13.2617L14.7644 13.6729ZM13.0726 13.6424L12.431 14.0308V14.0308L13.0726 13.6424ZM11.1644 10.4901L10.5228 10.8784V10.8784L11.1644 10.4901ZM9.43044 10.5302L8.77155 10.1719L9.43044 10.5302ZM6.34111 14.6417C6.14324 15.0056 6.27783 15.461 6.64173 15.6589C7.00562 15.8568 7.46103 15.7222 7.65889 15.3583L7 15L6.34111 14.6417ZM2 2H1.25V18H2H2.75V2H2ZM6 22V22.75H22V22V21.25H6V22ZM2 18H1.25C1.25 20.6234 3.37665 22.75 6 22.75V22V21.25C4.20507 21.25 2.75 19.7949 2.75 18H2ZM15.5 9V9.75H17.382V9V8.25H15.5V9ZM18.2764 9.55279L17.6056 9.8882L18.3292 11.3354L19 11L19.6708 10.6646L18.9472 9.21738L18.2764 9.55279ZM17.382 9V9.75C17.4767 9.75 17.5632 9.8035 17.6056 9.8882L18.2764 9.55279L18.9472 9.21738C18.6508 8.6245 18.0448 8.25 17.382 8.25V9ZM17.5 9.5L16.8728 9.08881L14.1372 13.2617L14.7644 13.6729L15.3917 14.084L18.1272 9.91119L17.5 9.5ZM13.0726 13.6424L13.7142 13.2541L11.8061 10.1017L11.1644 10.4901L10.5228 10.8784L12.431 14.0308L13.0726 13.6424ZM9.43044 10.5302L8.77155 10.1719L6.34111 14.6417L7 15L7.65889 15.3583L10.0893 10.8885L9.43044 10.5302ZM11.1644 10.4901L11.8061 10.1017C11.1065 8.946 9.41688 8.98511 8.77155 10.1719L9.43044 10.5302L10.0893 10.8885C10.1815 10.7189 10.4229 10.7133 10.5228 10.8784L11.1644 10.4901ZM14.7644 13.6729L14.1372 13.2617C14.0363 13.4155 13.8095 13.4114 13.7142 13.2541L13.0726 13.6424L12.431 14.0308C13.0978 15.1323 14.6857 15.1609 15.3917 14.084L14.7644 13.6729Z" fill="#1E1E1E"/>
</svg>
