<svg width="23" height="23" viewBox="0 0 23 23" fill="none" xmlns="http://www.w3.org/2000/svg">
<path d="M8.16667 6.49999C9.08714 6.49999 9.83333 5.7538 9.83333 4.83332C9.83333 3.91285 9.08714 3.16666 8.16667 3.16666C7.24619 3.16666 6.5 3.91285 6.5 4.83332C6.5 5.7538 7.24619 6.49999 8.16667 6.49999Z" fill="#777777"/>
<path d="M8.16667 12.442C9.08714 12.442 9.83333 11.6958 9.83333 10.7754C9.83333 9.8549 9.08714 9.1087 8.16667 9.1087C7.24619 9.1087 6.5 9.8549 6.5 10.7754C6.5 11.6958 7.24619 12.442 8.16667 12.442Z" fill="#777777"/>
<path d="M8.16667 18.3841C9.08714 18.3841 9.83333 17.6379 9.83333 16.7174C9.83333 15.7969 9.08714 15.0507 8.16667 15.0507C7.24619 15.0507 6.5 15.7969 6.5 16.7174C6.5 17.6379 7.24619 18.3841 8.16667 18.3841Z" fill="#777777"/>
<path d="M14.11 6.49999C15.0305 6.49999 15.7767 5.7538 15.7767 4.83332C15.7767 3.91285 15.0305 3.16666 14.11 3.16666C13.1896 3.16666 12.4434 3.91285 12.4434 4.83332C12.4434 5.7538 13.1896 6.49999 14.11 6.49999Z" fill="#777777"/>
<path d="M14.11 12.442C15.0305 12.442 15.7767 11.6958 15.7767 10.7754C15.7767 9.8549 15.0305 9.1087 14.11 9.1087C13.1896 9.1087 12.4434 9.8549 12.4434 10.7754C12.4434 11.6958 13.1896 12.442 14.11 12.442Z" fill="#777777"/>
<path d="M14.11 18.3841C15.0305 18.3841 15.7767 17.6379 15.7767 16.7174C15.7767 15.7969 15.0305 15.0507 14.11 15.0507C13.1896 15.0507 12.4434 15.7969 12.4434 16.7174C12.4434 17.6379 13.1896 18.3841 14.11 18.3841Z" fill="#777777"/>
</svg>
