<svg width="24" height="24" viewBox="0 0 24 24" fill="none" xmlns="http://www.w3.org/2000/svg">
<path d="M7 15H7.5C8.32843 15 9 14.3284 9 13.5V12.5C9 11.6716 9.67157 11 10.5 11C11.3284 11 12 11.6716 12 12.5V15.5C12 16.3284 12.6716 17 13.5 17C14.3284 17 15 16.3284 15 15.5C15 14.6716 15.6716 14 16.5 14H17M21 10.1503V17.9668C21 20.1943 19.2091 22 17 22H7C4.79086 22 3 20.1943 3 17.9668V10.1503C3 8.93937 3.53964 7.7925 4.46986 7.02652L9.46986 2.90935C10.9423 1.69689 13.0577 1.69688 14.5301 2.90935L19.5301 7.02652C20.4604 7.7925 21 8.93937 21 10.1503Z" stroke="white" stroke-width="1.5" stroke-linecap="round" stroke-linejoin="round"/>
</svg>
