<svg width="24" height="24" viewBox="0 0 24 24" fill="none" xmlns="http://www.w3.org/2000/svg">
<path d="M5.11621 17.5049C5.33335 17.9391 5.68588 18.2916 6.12012 18.5088L7.10156 19L6.12012 19.4912C5.68586 19.7083 5.33334 20.0608 5.11621 20.4951L4.625 21.4766L4.13379 20.4951C3.91665 20.0609 3.56415 19.7083 3.12988 19.4912L2.14746 19L3.12988 18.5088C3.5641 18.2916 3.91666 17.9392 4.13379 17.5049L4.625 16.5225L5.11621 17.5049ZM14.625 4.61328C14.937 4.61328 15.2204 4.7643 15.3936 5.01562L15.4609 5.12988L16.876 7.96094C17.2607 8.72923 17.8957 9.36425 18.665 9.74902L21.4941 11.1641C21.8142 11.3241 22.0117 11.6434 22.0117 12C22.0117 12.3567 21.8143 12.676 21.4951 12.8359L18.665 14.251H18.6641C17.8958 14.6357 17.2607 15.2707 16.876 16.04L15.4609 18.8691C15.3009 19.1885 14.9825 19.3857 14.625 19.3857C14.2676 19.3857 13.9491 19.1883 13.7891 18.8682L12.374 16.04C11.9893 15.2707 11.3545 14.6358 10.585 14.251L7.75586 12.8359C7.43589 12.6758 7.23828 12.3572 7.23828 12C7.23829 11.6428 7.4359 11.3242 7.75586 11.1641L10.585 9.74902C11.2584 9.41231 11.828 8.88376 12.2178 8.24219L12.374 7.96094L13.7891 5.13086C13.9491 4.81085 14.2684 4.61329 14.625 4.61328ZM14.2998 5.83691L13.0654 8.30469C12.6351 9.1645 11.9414 9.88568 11.1006 10.3506L10.9307 10.4404L7.81152 12L10.9307 13.5596C11.7907 13.9898 12.5107 14.6845 12.9756 15.5254L13.0654 15.6953L14.2998 18.1631L14.625 18.8135L16.1846 15.6943C16.6436 14.7773 17.4023 14.0185 18.3193 13.5596L18.3184 13.5586L20.7881 12.3252L21.4395 12L18.3203 10.4404C17.4599 10.0102 16.7393 9.31692 16.2744 8.47656L16.1846 8.30566L14.9502 5.83691L14.625 5.18555L14.2998 5.83691ZM5.11621 3.50488C5.33334 3.93914 5.68585 4.29166 6.12012 4.50879L7.10156 5L6.12012 5.49121C5.68586 5.70835 5.33334 6.06085 5.11621 6.49512L4.625 7.47656L4.13379 6.49512C3.91665 6.06086 3.56415 5.70834 3.12988 5.49121L2.14746 5L3.12988 4.50879C3.56414 4.29165 3.91666 3.93915 4.13379 3.50488L4.625 2.52246L5.11621 3.50488Z" fill="white" stroke="white" stroke-width="0.727273"/>
</svg>
