<svg width="1440" height="1134" viewBox="0 0 1440 1134" fill="none" xmlns="http://www.w3.org/2000/svg">
<g opacity="0.15" clip-path="url(#clip0_67_873)">
<mask id="path-1-inside-1_67_873" fill="white">
<path d="M0 0H180V180H0V0Z"/>
</mask>
<path d="M180 180V178.5H0V180V181.5H180V180Z" fill="black" mask="url(#path-1-inside-1_67_873)"/>
<mask id="path-3-inside-2_67_873" fill="white">
<path d="M180 0H360V180H180V0Z"/>
</mask>
<path d="M180 180H178.5V181.5H180V180ZM360 180V178.5H180V180V181.5H360V180ZM180 180H181.5V0H180H178.5V180H180Z" fill="black" mask="url(#path-3-inside-2_67_873)"/>
<mask id="path-5-inside-3_67_873" fill="white">
<path d="M360 0H540V180H360V0Z"/>
</mask>
<path d="M360 180H358.5V181.5H360V180ZM540 180V178.5H360V180V181.5H540V180ZM360 180H361.5V0H360H358.5V180H360Z" fill="black" mask="url(#path-5-inside-3_67_873)"/>
<mask id="path-7-inside-4_67_873" fill="white">
<path d="M540 0H720V180H540V0Z"/>
</mask>
<path d="M540 180H538.5V181.5H540V180ZM720 180V178.5H540V180V181.5H720V180ZM540 180H541.5V0H540H538.5V180H540Z" fill="black" mask="url(#path-7-inside-4_67_873)"/>
<mask id="path-9-inside-5_67_873" fill="white">
<path d="M720 0H900V180H720V0Z"/>
</mask>
<path d="M720 180H718.5V181.5H720V180ZM900 180V178.5H720V180V181.5H900V180ZM720 180H721.5V0H720H718.5V180H720Z" fill="black" mask="url(#path-9-inside-5_67_873)"/>
<mask id="path-11-inside-6_67_873" fill="white">
<path d="M900 0H1080V180H900V0Z"/>
</mask>
<path d="M900 0H1080V180H900V0Z" fill="black" fill-opacity="0.3"/>
<path d="M900 180H898.5V181.5H900V180ZM1080 180V178.5H900V180V181.5H1080V180ZM900 180H901.5V0H900H898.5V180H900Z" fill="black" mask="url(#path-11-inside-6_67_873)"/>
<mask id="path-13-inside-7_67_873" fill="white">
<path d="M1080 0H1260V180H1080V0Z"/>
</mask>
<path d="M1080 180H1078.5V181.5H1080V180ZM1260 180V178.5H1080V180V181.5H1260V180ZM1080 180H1081.5V0H1080H1078.5V180H1080Z" fill="black" mask="url(#path-13-inside-7_67_873)"/>
<mask id="path-15-inside-8_67_873" fill="white">
<path d="M1260 0H1440V180H1260V0Z"/>
</mask>
<path d="M1260 180H1258.5V181.5H1260V180ZM1440 180V178.5H1260V180V181.5H1440V180ZM1260 180H1261.5V0H1260H1258.5V180H1260Z" fill="black" mask="url(#path-15-inside-8_67_873)"/>
<mask id="path-17-inside-9_67_873" fill="white">
<path d="M0 180H180V360H0V180Z"/>
</mask>
<path d="M180 360V358.5H0V360V361.5H180V360Z" fill="black" mask="url(#path-17-inside-9_67_873)"/>
<mask id="path-19-inside-10_67_873" fill="white">
<path d="M180 180H360V360H180V180Z"/>
</mask>
<path d="M180 360H178.5V361.5H180V360ZM360 360V358.5H180V360V361.5H360V360ZM180 360H181.5V180H180H178.5V360H180Z" fill="black" mask="url(#path-19-inside-10_67_873)"/>
<mask id="path-21-inside-11_67_873" fill="white">
<path d="M360 180H540V360H360V180Z"/>
</mask>
<path d="M360 180H540V360H360V180Z" fill="black" fill-opacity="0.3"/>
<path d="M360 360H358.5V361.5H360V360ZM540 360V358.5H360V360V361.5H540V360ZM360 360H361.5V180H360H358.5V360H360Z" fill="black" mask="url(#path-21-inside-11_67_873)"/>
<mask id="path-23-inside-12_67_873" fill="white">
<path d="M540 180H720V360H540V180Z"/>
</mask>
<path d="M540 360H538.5V361.5H540V360ZM720 360V358.5H540V360V361.5H720V360ZM540 360H541.5V180H540H538.5V360H540Z" fill="black" mask="url(#path-23-inside-12_67_873)"/>
<mask id="path-25-inside-13_67_873" fill="white">
<path d="M720 180H900V360H720V180Z"/>
</mask>
<path d="M720 360H718.5V361.5H720V360ZM900 360V358.5H720V360V361.5H900V360ZM720 360H721.5V180H720H718.5V360H720Z" fill="black" mask="url(#path-25-inside-13_67_873)"/>
<mask id="path-27-inside-14_67_873" fill="white">
<path d="M900 180H1080V360H900V180Z"/>
</mask>
<path d="M900 360H898.5V361.5H900V360ZM1080 360V358.5H900V360V361.5H1080V360ZM900 360H901.5V180H900H898.5V360H900Z" fill="black" mask="url(#path-27-inside-14_67_873)"/>
<mask id="path-29-inside-15_67_873" fill="white">
<path d="M1080 180H1260V360H1080V180Z"/>
</mask>
<path d="M1080 360H1078.5V361.5H1080V360ZM1260 360V358.5H1080V360V361.5H1260V360ZM1080 360H1081.5V180H1080H1078.5V360H1080Z" fill="black" mask="url(#path-29-inside-15_67_873)"/>
<mask id="path-31-inside-16_67_873" fill="white">
<path d="M1260 180H1440V360H1260V180Z"/>
</mask>
<path d="M1260 360H1258.5V361.5H1260V360ZM1440 360V358.5H1260V360V361.5H1440V360ZM1260 360H1261.5V180H1260H1258.5V360H1260Z" fill="black" mask="url(#path-31-inside-16_67_873)"/>
<mask id="path-33-inside-17_67_873" fill="white">
<path d="M0 360H180V540H0V360Z"/>
</mask>
<path d="M180 540V538.5H0V540V541.5H180V540Z" fill="black" mask="url(#path-33-inside-17_67_873)"/>
<mask id="path-35-inside-18_67_873" fill="white">
<path d="M180 360H360V540H180V360Z"/>
</mask>
<path d="M180 540H178.5V541.5H180V540ZM360 540V538.5H180V540V541.5H360V540ZM180 540H181.5V360H180H178.5V540H180Z" fill="black" mask="url(#path-35-inside-18_67_873)"/>
<mask id="path-37-inside-19_67_873" fill="white">
<path d="M360 360H540V540H360V360Z"/>
</mask>
<path d="M360 540H358.5V541.5H360V540ZM540 540V538.5H360V540V541.5H540V540ZM360 540H361.5V360H360H358.5V540H360Z" fill="black" mask="url(#path-37-inside-19_67_873)"/>
<mask id="path-39-inside-20_67_873" fill="white">
<path d="M540 360H720V540H540V360Z"/>
</mask>
<path d="M540 540H538.5V541.5H540V540ZM720 540V538.5H540V540V541.5H720V540ZM540 540H541.5V360H540H538.5V540H540Z" fill="black" mask="url(#path-39-inside-20_67_873)"/>
<mask id="path-41-inside-21_67_873" fill="white">
<path d="M720 360H900V540H720V360Z"/>
</mask>
<path d="M720 540H718.5V541.5H720V540ZM900 540V538.5H720V540V541.5H900V540ZM720 540H721.5V360H720H718.5V540H720Z" fill="black" mask="url(#path-41-inside-21_67_873)"/>
<mask id="path-43-inside-22_67_873" fill="white">
<path d="M900 360H1080V540H900V360Z"/>
</mask>
<path d="M900 360H1080V540H900V360Z" fill="black" fill-opacity="0.3"/>
<path d="M900 540H898.5V541.5H900V540ZM1080 540V538.5H900V540V541.5H1080V540ZM900 540H901.5V360H900H898.5V540H900Z" fill="black" mask="url(#path-43-inside-22_67_873)"/>
<mask id="path-45-inside-23_67_873" fill="white">
<path d="M1080 360H1260V540H1080V360Z"/>
</mask>
<path d="M1080 540H1078.5V541.5H1080V540ZM1260 540V538.5H1080V540V541.5H1260V540ZM1080 540H1081.5V360H1080H1078.5V540H1080Z" fill="black" mask="url(#path-45-inside-23_67_873)"/>
<mask id="path-47-inside-24_67_873" fill="white">
<path d="M1260 360H1440V540H1260V360Z"/>
</mask>
<path d="M1260 540H1258.5V541.5H1260V540ZM1440 540V538.5H1260V540V541.5H1440V540ZM1260 540H1261.5V360H1260H1258.5V540H1260Z" fill="black" mask="url(#path-47-inside-24_67_873)"/>
<mask id="path-49-inside-25_67_873" fill="white">
<path d="M0 540H180V720H0V540Z"/>
</mask>
<path d="M0 540H180V720H0V540Z" fill="black" fill-opacity="0.3"/>
<path d="M180 720V718.5H0V720V721.5H180V720Z" fill="black" mask="url(#path-49-inside-25_67_873)"/>
<mask id="path-51-inside-26_67_873" fill="white">
<path d="M180 540H360V720H180V540Z"/>
</mask>
<path d="M180 720H178.5V721.5H180V720ZM360 720V718.5H180V720V721.5H360V720ZM180 720H181.5V540H180H178.5V720H180Z" fill="black" mask="url(#path-51-inside-26_67_873)"/>
<mask id="path-53-inside-27_67_873" fill="white">
<path d="M360 540H540V720H360V540Z"/>
</mask>
<path d="M360 720H358.5V721.5H360V720ZM540 720V718.5H360V720V721.5H540V720ZM360 720H361.5V540H360H358.5V720H360Z" fill="black" mask="url(#path-53-inside-27_67_873)"/>
<mask id="path-55-inside-28_67_873" fill="white">
<path d="M540 540H720V720H540V540Z"/>
</mask>
<path d="M540 540H720V720H540V540Z" fill="black" fill-opacity="0.3"/>
<path d="M540 720H538.5V721.5H540V720ZM720 720V718.5H540V720V721.5H720V720ZM540 720H541.5V540H540H538.5V720H540Z" fill="black" mask="url(#path-55-inside-28_67_873)"/>
<mask id="path-57-inside-29_67_873" fill="white">
<path d="M720 540H900V720H720V540Z"/>
</mask>
<path d="M720 720H718.5V721.5H720V720ZM900 720V718.5H720V720V721.5H900V720ZM720 720H721.5V540H720H718.5V720H720Z" fill="black" mask="url(#path-57-inside-29_67_873)"/>
<mask id="path-59-inside-30_67_873" fill="white">
<path d="M900 540H1080V720H900V540Z"/>
</mask>
<path d="M900 720H898.5V721.5H900V720ZM1080 720V718.5H900V720V721.5H1080V720ZM900 720H901.5V540H900H898.5V720H900Z" fill="black" mask="url(#path-59-inside-30_67_873)"/>
<mask id="path-61-inside-31_67_873" fill="white">
<path d="M1080 540H1260V720H1080V540Z"/>
</mask>
<path d="M1080 720H1078.5V721.5H1080V720ZM1260 720V718.5H1080V720V721.5H1260V720ZM1080 720H1081.5V540H1080H1078.5V720H1080Z" fill="black" mask="url(#path-61-inside-31_67_873)"/>
<mask id="path-63-inside-32_67_873" fill="white">
<path d="M1260 540H1440V720H1260V540Z"/>
</mask>
<path d="M1260 720H1258.5V721.5H1260V720ZM1440 720V718.5H1260V720V721.5H1440V720ZM1260 720H1261.5V540H1260H1258.5V720H1260Z" fill="black" mask="url(#path-63-inside-32_67_873)"/>
<mask id="path-65-inside-33_67_873" fill="white">
<path d="M0 720H180V900H0V720Z"/>
</mask>
<path d="M180 900V898.5H0V900V901.5H180V900Z" fill="black" mask="url(#path-65-inside-33_67_873)"/>
<mask id="path-67-inside-34_67_873" fill="white">
<path d="M180 720H360V900H180V720Z"/>
</mask>
<path d="M180 720H360V900H180V720Z" fill="black" fill-opacity="0.3"/>
<path d="M180 900H178.5V901.5H180V900ZM360 900V898.5H180V900V901.5H360V900ZM180 900H181.5V720H180H178.5V900H180Z" fill="black" mask="url(#path-67-inside-34_67_873)"/>
<mask id="path-69-inside-35_67_873" fill="white">
<path d="M360 720H540V900H360V720Z"/>
</mask>
<path d="M360 900H358.5V901.5H360V900ZM540 900V898.5H360V900V901.5H540V900ZM360 900H361.5V720H360H358.5V900H360Z" fill="black" mask="url(#path-69-inside-35_67_873)"/>
<mask id="path-71-inside-36_67_873" fill="white">
<path d="M540 720H720V900H540V720Z"/>
</mask>
<path d="M540 900H538.5V901.5H540V900ZM720 900V898.5H540V900V901.5H720V900ZM540 900H541.5V720H540H538.5V900H540Z" fill="black" mask="url(#path-71-inside-36_67_873)"/>
<mask id="path-73-inside-37_67_873" fill="white">
<path d="M720 720H900V900H720V720Z"/>
</mask>
<path d="M720 900H718.5V901.5H720V900ZM900 900V898.5H720V900V901.5H900V900ZM720 900H721.5V720H720H718.5V900H720Z" fill="black" mask="url(#path-73-inside-37_67_873)"/>
<mask id="path-75-inside-38_67_873" fill="white">
<path d="M900 720H1080V900H900V720Z"/>
</mask>
<path d="M900 900H898.5V901.5H900V900ZM1080 900V898.5H900V900V901.5H1080V900ZM900 900H901.5V720H900H898.5V900H900Z" fill="black" mask="url(#path-75-inside-38_67_873)"/>
<mask id="path-77-inside-39_67_873" fill="white">
<path d="M1080 720H1260V900H1080V720Z"/>
</mask>
<path d="M1080 720H1260V900H1080V720Z" fill="black" fill-opacity="0.3"/>
<path d="M1080 900H1078.5V901.5H1080V900ZM1260 900V898.5H1080V900V901.5H1260V900ZM1080 900H1081.5V720H1080H1078.5V900H1080Z" fill="black" mask="url(#path-77-inside-39_67_873)"/>
<mask id="path-79-inside-40_67_873" fill="white">
<path d="M1260 720H1440V900H1260V720Z"/>
</mask>
<path d="M1260 900H1258.5V901.5H1260V900ZM1440 900V898.5H1260V900V901.5H1440V900ZM1260 900H1261.5V720H1260H1258.5V900H1260Z" fill="black" mask="url(#path-79-inside-40_67_873)"/>
<mask id="path-81-inside-41_67_873" fill="white">
<path d="M0 900H180V1080H0V900Z"/>
</mask>
<path d="M180 1080V1078.5H0V1080V1081.5H180V1080Z" fill="black" mask="url(#path-81-inside-41_67_873)"/>
<mask id="path-83-inside-42_67_873" fill="white">
<path d="M180 900H360V1080H180V900Z"/>
</mask>
<path d="M180 1080H178.5V1081.5H180V1080ZM360 1080V1078.5H180V1080V1081.5H360V1080ZM180 1080H181.5V900H180H178.5V1080H180Z" fill="black" mask="url(#path-83-inside-42_67_873)"/>
<mask id="path-85-inside-43_67_873" fill="white">
<path d="M360 900H540V1080H360V900Z"/>
</mask>
<path d="M360 1080H358.5V1081.5H360V1080ZM540 1080V1078.5H360V1080V1081.5H540V1080ZM360 1080H361.5V900H360H358.5V1080H360Z" fill="black" mask="url(#path-85-inside-43_67_873)"/>
<mask id="path-87-inside-44_67_873" fill="white">
<path d="M540 900H720V1080H540V900Z"/>
</mask>
<path d="M540 1080H538.5V1081.5H540V1080ZM720 1080V1078.5H540V1080V1081.5H720V1080ZM540 1080H541.5V900H540H538.5V1080H540Z" fill="black" mask="url(#path-87-inside-44_67_873)"/>
<mask id="path-89-inside-45_67_873" fill="white">
<path d="M720 900H900V1080H720V900Z"/>
</mask>
<path d="M720 900H900V1080H720V900Z" fill="black" fill-opacity="0.3"/>
<path d="M720 1080H718.5V1081.5H720V1080ZM900 1080V1078.5H720V1080V1081.5H900V1080ZM720 1080H721.5V900H720H718.5V1080H720Z" fill="black" mask="url(#path-89-inside-45_67_873)"/>
<mask id="path-91-inside-46_67_873" fill="white">
<path d="M900 900H1080V1080H900V900Z"/>
</mask>
<path d="M900 1080H898.5V1081.5H900V1080ZM1080 1080V1078.5H900V1080V1081.5H1080V1080ZM900 1080H901.5V900H900H898.5V1080H900Z" fill="black" mask="url(#path-91-inside-46_67_873)"/>
<mask id="path-93-inside-47_67_873" fill="white">
<path d="M1080 900H1260V1080H1080V900Z"/>
</mask>
<path d="M1080 1080H1078.5V1081.5H1080V1080ZM1260 1080V1078.5H1080V1080V1081.5H1260V1080ZM1080 1080H1081.5V900H1080H1078.5V1080H1080Z" fill="black" mask="url(#path-93-inside-47_67_873)"/>
<mask id="path-95-inside-48_67_873" fill="white">
<path d="M1260 900H1440V1080H1260V900Z"/>
</mask>
<path d="M1260 1080H1258.5V1081.5H1260V1080ZM1440 1080V1078.5H1260V1080V1081.5H1440V1080ZM1260 1080H1261.5V900H1260H1258.5V1080H1260Z" fill="black" mask="url(#path-95-inside-48_67_873)"/>
<mask id="path-97-inside-49_67_873" fill="white">
<path d="M0 1080H180V1260H0V1080Z"/>
</mask>
<path d="M180 1260V1258.5H0V1260V1261.5H180V1260Z" fill="black" mask="url(#path-97-inside-49_67_873)"/>
<mask id="path-99-inside-50_67_873" fill="white">
<path d="M180 1080H360V1260H180V1080Z"/>
</mask>
<path d="M180 1260H178.5V1261.5H180V1260ZM360 1260V1258.5H180V1260V1261.5H360V1260ZM180 1260H181.5V1080H180H178.5V1260H180Z" fill="black" mask="url(#path-99-inside-50_67_873)"/>
<mask id="path-101-inside-51_67_873" fill="white">
<path d="M360 1080H540V1260H360V1080Z"/>
</mask>
<path d="M360 1260H358.5V1261.5H360V1260ZM540 1260V1258.5H360V1260V1261.5H540V1260ZM360 1260H361.5V1080H360H358.5V1260H360Z" fill="black" mask="url(#path-101-inside-51_67_873)"/>
<mask id="path-103-inside-52_67_873" fill="white">
<path d="M540 1080H720V1260H540V1080Z"/>
</mask>
<path d="M540 1080H720V1260H540V1080Z" fill="black" fill-opacity="0.3"/>
<path d="M540 1260H538.5V1261.5H540V1260ZM720 1260V1258.5H540V1260V1261.5H720V1260ZM540 1260H541.5V1080H540H538.5V1260H540Z" fill="black" mask="url(#path-103-inside-52_67_873)"/>
<mask id="path-105-inside-53_67_873" fill="white">
<path d="M720 1080H900V1260H720V1080Z"/>
</mask>
<path d="M720 1260H718.5V1261.5H720V1260ZM900 1260V1258.5H720V1260V1261.5H900V1260ZM720 1260H721.5V1080H720H718.5V1260H720Z" fill="black" mask="url(#path-105-inside-53_67_873)"/>
<mask id="path-107-inside-54_67_873" fill="white">
<path d="M900 1080H1080V1260H900V1080Z"/>
</mask>
<path d="M900 1260H898.5V1261.5H900V1260ZM1080 1260V1258.5H900V1260V1261.5H1080V1260ZM900 1260H901.5V1080H900H898.5V1260H900Z" fill="black" mask="url(#path-107-inside-54_67_873)"/>
<mask id="path-109-inside-55_67_873" fill="white">
<path d="M1080 1080H1260V1260H1080V1080Z"/>
</mask>
<path d="M1080 1260H1078.5V1261.5H1080V1260ZM1260 1260V1258.5H1080V1260V1261.5H1260V1260ZM1080 1260H1081.5V1080H1080H1078.5V1260H1080Z" fill="black" mask="url(#path-109-inside-55_67_873)"/>
<mask id="path-111-inside-56_67_873" fill="white">
<path d="M1260 1080H1440V1260H1260V1080Z"/>
</mask>
<path d="M1260 1260H1258.5V1261.5H1260V1260ZM1440 1260V1258.5H1260V1260V1261.5H1440V1260ZM1260 1260H1261.5V1080H1260H1258.5V1260H1260Z" fill="black" mask="url(#path-111-inside-56_67_873)"/>
<g filter="url(#filter0_f_67_873)">
<circle cx="720" cy="567" r="1434" fill="url(#paint0_radial_67_873)"/>
</g>
</g>
<defs>
<filter id="filter0_f_67_873" x="-1164" y="-1317" width="3768" height="3768" filterUnits="userSpaceOnUse" color-interpolation-filters="sRGB">
<feFlood flood-opacity="0" result="BackgroundImageFix"/>
<feBlend mode="normal" in="SourceGraphic" in2="BackgroundImageFix" result="shape"/>
<feGaussianBlur stdDeviation="225" result="effect1_foregroundBlur_67_873"/>
</filter>
<radialGradient id="paint0_radial_67_873" cx="0" cy="0" r="1" gradientUnits="userSpaceOnUse" gradientTransform="translate(720 567) rotate(90) scale(1434)">
<stop stop-color="white" stop-opacity="0"/>
<stop offset="0.46589" stop-color="white"/>
</radialGradient>
<clipPath id="clip0_67_873">
<rect width="1440" height="1134" fill="white"/>
</clipPath>
</defs>
</svg>
