<svg width="32" height="32" viewBox="0 0 32 32" fill="none" xmlns="http://www.w3.org/2000/svg">
<g clip-path="url(#clip0_199_215)">
<path d="M25.3333 11.6133L18.2227 6.08267C17.5986 5.59722 16.8306 5.33365 16.04 5.33365C15.2494 5.33365 14.4813 5.59722 13.8573 6.08267L6.74532 11.6133C6.31791 11.9457 5.97211 12.3714 5.73433 12.8578C5.49655 13.3442 5.37307 13.8786 5.37332 14.42V24.02C5.37332 24.7273 5.65427 25.4055 6.15437 25.9056C6.65447 26.4057 7.33274 26.6867 8.03999 26.6867H24.04C24.7472 26.6867 25.4255 26.4057 25.9256 25.9056C26.4257 25.4055 26.7067 24.7273 26.7067 24.02V14.42C26.7067 13.3227 26.2 12.2867 25.3333 11.6133Z" fill="#1E1E1E" stroke="#1E1E1E" stroke-width="3" stroke-linecap="round" stroke-linejoin="round"/>
<path d="M21.3334 20C18.3867 21.7773 13.6107 21.7773 10.6667 20" stroke="white" stroke-width="3" stroke-linecap="round" stroke-linejoin="round"/>
</g>
<defs>
<clipPath id="clip0_199_215">
<rect width="32" height="32" fill="white"/>
</clipPath>
</defs>
</svg>
